<mxfile host="app.diagrams.net" modified="2022-12-02T08:52:36.016Z" agent="5.0 (Windows NT 10.0; Win64; x64) AppleWebKit/537.36 (KHTML, like Gecko) Chrome/108.0.0.0 Safari/537.36" version="20.6.0" etag="djm581ozDbJ8XAY-mafN" type="github">
  <diagram id="38WsiOCkXeBr5K3XiIo3" name="Page-1">
    <mxGraphModel dx="741" dy="563" grid="1" gridSize="10" guides="1" tooltips="1" connect="1" arrows="1" fold="1" page="1" pageScale="1" pageWidth="850" pageHeight="1100" math="0" shadow="0">
      <root>
        <mxCell id="0" />
        <mxCell id="1" parent="0" />
        <mxCell id="AcnBpQLC1XjuqXRMUF2F-57" value="" style="endArrow=none;dashed=1;html=1;dashPattern=1 3;strokeWidth=2;rounded=0;exitX=1;exitY=0.5;exitDx=0;exitDy=0;" edge="1" parent="1" source="AcnBpQLC1XjuqXRMUF2F-5" target="AcnBpQLC1XjuqXRMUF2F-56">
          <mxGeometry width="50" height="50" relative="1" as="geometry">
            <mxPoint x="180" y="335" as="sourcePoint" />
            <mxPoint x="697" y="335" as="targetPoint" />
          </mxGeometry>
        </mxCell>
        <mxCell id="AcnBpQLC1XjuqXRMUF2F-50" value="" style="endArrow=none;dashed=1;html=1;dashPattern=1 3;strokeWidth=2;rounded=0;exitX=1;exitY=0.5;exitDx=0;exitDy=0;" edge="1" parent="1" source="AcnBpQLC1XjuqXRMUF2F-4">
          <mxGeometry width="50" height="50" relative="1" as="geometry">
            <mxPoint x="347" y="370" as="sourcePoint" />
            <mxPoint x="697" y="515" as="targetPoint" />
          </mxGeometry>
        </mxCell>
        <mxCell id="AcnBpQLC1XjuqXRMUF2F-49" value="" style="endArrow=none;dashed=1;html=1;dashPattern=1 3;strokeWidth=2;rounded=0;exitX=1;exitY=0.5;exitDx=0;exitDy=0;" edge="1" parent="1" source="AcnBpQLC1XjuqXRMUF2F-3">
          <mxGeometry width="50" height="50" relative="1" as="geometry">
            <mxPoint x="347" y="370" as="sourcePoint" />
            <mxPoint x="697" y="455" as="targetPoint" />
          </mxGeometry>
        </mxCell>
        <mxCell id="AcnBpQLC1XjuqXRMUF2F-48" value="" style="endArrow=none;dashed=1;html=1;dashPattern=1 3;strokeWidth=2;rounded=0;exitX=1;exitY=0.5;exitDx=0;exitDy=0;" edge="1" parent="1" source="AcnBpQLC1XjuqXRMUF2F-2">
          <mxGeometry width="50" height="50" relative="1" as="geometry">
            <mxPoint x="347" y="370" as="sourcePoint" />
            <mxPoint x="697" y="395" as="targetPoint" />
          </mxGeometry>
        </mxCell>
        <mxCell id="AcnBpQLC1XjuqXRMUF2F-47" value="" style="endArrow=none;dashed=1;html=1;dashPattern=1 3;strokeWidth=2;rounded=0;exitX=1;exitY=0.5;exitDx=0;exitDy=0;" edge="1" parent="1" source="AcnBpQLC1XjuqXRMUF2F-1">
          <mxGeometry width="50" height="50" relative="1" as="geometry">
            <mxPoint x="347" y="370" as="sourcePoint" />
            <mxPoint x="697" y="275" as="targetPoint" />
          </mxGeometry>
        </mxCell>
        <mxCell id="AcnBpQLC1XjuqXRMUF2F-46" value="" style="endArrow=none;dashed=1;html=1;dashPattern=1 3;strokeWidth=2;rounded=0;exitX=1;exitY=0.5;exitDx=0;exitDy=0;startArrow=none;" edge="1" parent="1" source="AcnBpQLC1XjuqXRMUF2F-56">
          <mxGeometry width="50" height="50" relative="1" as="geometry">
            <mxPoint x="347" y="370" as="sourcePoint" />
            <mxPoint x="697" y="335" as="targetPoint" />
          </mxGeometry>
        </mxCell>
        <mxCell id="AcnBpQLC1XjuqXRMUF2F-1" value="master" style="rounded=1;whiteSpace=wrap;html=1;fillColor=#d5e8d4;strokeColor=#82b366;" vertex="1" parent="1">
          <mxGeometry x="120" y="260" width="60" height="30" as="geometry" />
        </mxCell>
        <mxCell id="AcnBpQLC1XjuqXRMUF2F-2" value="feature" style="rounded=1;whiteSpace=wrap;html=1;fillColor=#e1d5e7;strokeColor=#9673a6;" vertex="1" parent="1">
          <mxGeometry x="120" y="380" width="60" height="30" as="geometry" />
        </mxCell>
        <mxCell id="AcnBpQLC1XjuqXRMUF2F-3" value="bugfix" style="rounded=1;whiteSpace=wrap;html=1;fillColor=#dae8fc;strokeColor=#6c8ebf;" vertex="1" parent="1">
          <mxGeometry x="120" y="440" width="60" height="30" as="geometry" />
        </mxCell>
        <mxCell id="AcnBpQLC1XjuqXRMUF2F-4" value="hotfix" style="rounded=1;whiteSpace=wrap;html=1;fillColor=#f8cecc;strokeColor=#b85450;" vertex="1" parent="1">
          <mxGeometry x="120" y="500" width="60" height="30" as="geometry" />
        </mxCell>
        <mxCell id="AcnBpQLC1XjuqXRMUF2F-5" value="release" style="rounded=1;whiteSpace=wrap;html=1;fillColor=#fff2cc;strokeColor=#d6b656;" vertex="1" parent="1">
          <mxGeometry x="120" y="320" width="60" height="30" as="geometry" />
        </mxCell>
        <mxCell id="AcnBpQLC1XjuqXRMUF2F-14" style="edgeStyle=orthogonalEdgeStyle;rounded=0;orthogonalLoop=1;jettySize=auto;html=1;entryX=0;entryY=0.5;entryDx=0;entryDy=0;strokeWidth=2;" edge="1" parent="1" source="AcnBpQLC1XjuqXRMUF2F-6" target="AcnBpQLC1XjuqXRMUF2F-10">
          <mxGeometry relative="1" as="geometry" />
        </mxCell>
        <mxCell id="AcnBpQLC1XjuqXRMUF2F-6" value="" style="ellipse;whiteSpace=wrap;html=1;aspect=fixed;fillColor=#d5e8d4;strokeColor=#82b366;" vertex="1" parent="1">
          <mxGeometry x="207" y="265" width="20" height="20" as="geometry" />
        </mxCell>
        <mxCell id="AcnBpQLC1XjuqXRMUF2F-12" style="edgeStyle=orthogonalEdgeStyle;rounded=0;orthogonalLoop=1;jettySize=auto;html=1;exitX=1;exitY=0.5;exitDx=0;exitDy=0;entryX=-0.15;entryY=0.505;entryDx=0;entryDy=0;entryPerimeter=0;strokeWidth=2;" edge="1" parent="1" source="AcnBpQLC1XjuqXRMUF2F-7" target="AcnBpQLC1XjuqXRMUF2F-9">
          <mxGeometry relative="1" as="geometry" />
        </mxCell>
        <mxCell id="AcnBpQLC1XjuqXRMUF2F-7" value="" style="ellipse;whiteSpace=wrap;html=1;aspect=fixed;fillColor=#e1d5e7;strokeColor=#9673a6;" vertex="1" parent="1">
          <mxGeometry x="237" y="385" width="20" height="20" as="geometry" />
        </mxCell>
        <mxCell id="AcnBpQLC1XjuqXRMUF2F-8" value="" style="endArrow=classic;html=1;rounded=0;entryX=0.288;entryY=0.01;entryDx=0;entryDy=0;entryPerimeter=0;strokeWidth=2;" edge="1" parent="1" source="AcnBpQLC1XjuqXRMUF2F-6" target="AcnBpQLC1XjuqXRMUF2F-7">
          <mxGeometry width="50" height="50" relative="1" as="geometry">
            <mxPoint x="247" y="470" as="sourcePoint" />
            <mxPoint x="297" y="420" as="targetPoint" />
          </mxGeometry>
        </mxCell>
        <mxCell id="AcnBpQLC1XjuqXRMUF2F-9" value="" style="ellipse;whiteSpace=wrap;html=1;aspect=fixed;fillColor=#e1d5e7;strokeColor=#9673a6;" vertex="1" parent="1">
          <mxGeometry x="277" y="385" width="20" height="20" as="geometry" />
        </mxCell>
        <mxCell id="AcnBpQLC1XjuqXRMUF2F-29" style="edgeStyle=orthogonalEdgeStyle;rounded=0;orthogonalLoop=1;jettySize=auto;html=1;" edge="1" parent="1" source="AcnBpQLC1XjuqXRMUF2F-10" target="AcnBpQLC1XjuqXRMUF2F-15">
          <mxGeometry relative="1" as="geometry" />
        </mxCell>
        <mxCell id="AcnBpQLC1XjuqXRMUF2F-10" value="" style="ellipse;whiteSpace=wrap;html=1;aspect=fixed;fillColor=#d5e8d4;strokeColor=#82b366;" vertex="1" parent="1">
          <mxGeometry x="307" y="265" width="20" height="20" as="geometry" />
        </mxCell>
        <mxCell id="AcnBpQLC1XjuqXRMUF2F-11" value="" style="endArrow=classic;html=1;rounded=0;entryX=0.5;entryY=1;entryDx=0;entryDy=0;strokeWidth=2;" edge="1" parent="1" source="AcnBpQLC1XjuqXRMUF2F-9" target="AcnBpQLC1XjuqXRMUF2F-10">
          <mxGeometry width="50" height="50" relative="1" as="geometry">
            <mxPoint x="247" y="470" as="sourcePoint" />
            <mxPoint x="297" y="420" as="targetPoint" />
          </mxGeometry>
        </mxCell>
        <mxCell id="AcnBpQLC1XjuqXRMUF2F-32" style="edgeStyle=orthogonalEdgeStyle;rounded=0;orthogonalLoop=1;jettySize=auto;html=1;" edge="1" parent="1" source="AcnBpQLC1XjuqXRMUF2F-15" target="AcnBpQLC1XjuqXRMUF2F-31">
          <mxGeometry relative="1" as="geometry" />
        </mxCell>
        <mxCell id="AcnBpQLC1XjuqXRMUF2F-15" value="" style="ellipse;whiteSpace=wrap;html=1;aspect=fixed;fillColor=#d5e8d4;strokeColor=#82b366;" vertex="1" parent="1">
          <mxGeometry x="342" y="265" width="20" height="20" as="geometry" />
        </mxCell>
        <mxCell id="AcnBpQLC1XjuqXRMUF2F-28" style="edgeStyle=orthogonalEdgeStyle;rounded=0;orthogonalLoop=1;jettySize=auto;html=1;entryX=0;entryY=0.5;entryDx=0;entryDy=0;strokeWidth=2;" edge="1" parent="1" source="AcnBpQLC1XjuqXRMUF2F-17" target="AcnBpQLC1XjuqXRMUF2F-19">
          <mxGeometry relative="1" as="geometry" />
        </mxCell>
        <mxCell id="AcnBpQLC1XjuqXRMUF2F-17" value="" style="ellipse;whiteSpace=wrap;html=1;aspect=fixed;fillColor=#fff2cc;strokeColor=#d6b656;" vertex="1" parent="1">
          <mxGeometry x="357" y="325" width="20" height="20" as="geometry" />
        </mxCell>
        <mxCell id="AcnBpQLC1XjuqXRMUF2F-30" style="edgeStyle=orthogonalEdgeStyle;rounded=0;orthogonalLoop=1;jettySize=auto;html=1;entryX=0;entryY=0.5;entryDx=0;entryDy=0;strokeWidth=2;" edge="1" parent="1" source="AcnBpQLC1XjuqXRMUF2F-19" target="AcnBpQLC1XjuqXRMUF2F-21">
          <mxGeometry relative="1" as="geometry" />
        </mxCell>
        <mxCell id="AcnBpQLC1XjuqXRMUF2F-19" value="" style="ellipse;whiteSpace=wrap;html=1;aspect=fixed;fillColor=#fff2cc;strokeColor=#d6b656;" vertex="1" parent="1">
          <mxGeometry x="507" y="325" width="20" height="20" as="geometry" />
        </mxCell>
        <mxCell id="AcnBpQLC1XjuqXRMUF2F-20" value="" style="ellipse;whiteSpace=wrap;html=1;aspect=fixed;fillColor=#f8cecc;strokeColor=#b85450;" vertex="1" parent="1">
          <mxGeometry x="537" y="505" width="20" height="20" as="geometry" />
        </mxCell>
        <mxCell id="AcnBpQLC1XjuqXRMUF2F-61" style="edgeStyle=orthogonalEdgeStyle;rounded=0;orthogonalLoop=1;jettySize=auto;html=1;entryX=0;entryY=0.5;entryDx=0;entryDy=0;strokeWidth=2;" edge="1" parent="1" source="AcnBpQLC1XjuqXRMUF2F-21" target="AcnBpQLC1XjuqXRMUF2F-56">
          <mxGeometry relative="1" as="geometry" />
        </mxCell>
        <mxCell id="AcnBpQLC1XjuqXRMUF2F-21" value="" style="ellipse;whiteSpace=wrap;html=1;aspect=fixed;fillColor=#fff2cc;strokeColor=#d6b656;" vertex="1" parent="1">
          <mxGeometry x="577" y="325" width="20" height="20" as="geometry" />
        </mxCell>
        <mxCell id="AcnBpQLC1XjuqXRMUF2F-22" value="" style="ellipse;whiteSpace=wrap;html=1;aspect=fixed;fillColor=#d5e8d4;strokeColor=#82b366;" vertex="1" parent="1">
          <mxGeometry x="627" y="265" width="20" height="20" as="geometry" />
        </mxCell>
        <mxCell id="AcnBpQLC1XjuqXRMUF2F-23" value="" style="endArrow=classic;html=1;rounded=0;entryX=0.331;entryY=1.114;entryDx=0;entryDy=0;entryPerimeter=0;exitX=0.5;exitY=0;exitDx=0;exitDy=0;strokeWidth=2;" edge="1" parent="1" source="AcnBpQLC1XjuqXRMUF2F-20" target="AcnBpQLC1XjuqXRMUF2F-21">
          <mxGeometry width="50" height="50" relative="1" as="geometry">
            <mxPoint x="407" y="490" as="sourcePoint" />
            <mxPoint x="457" y="440" as="targetPoint" />
          </mxGeometry>
        </mxCell>
        <mxCell id="AcnBpQLC1XjuqXRMUF2F-24" value="" style="endArrow=classic;html=1;rounded=0;entryX=0.5;entryY=0;entryDx=0;entryDy=0;exitX=0.5;exitY=1;exitDx=0;exitDy=0;strokeWidth=2;" edge="1" parent="1" source="AcnBpQLC1XjuqXRMUF2F-19" target="AcnBpQLC1XjuqXRMUF2F-20">
          <mxGeometry width="50" height="50" relative="1" as="geometry">
            <mxPoint x="407" y="490" as="sourcePoint" />
            <mxPoint x="457" y="440" as="targetPoint" />
          </mxGeometry>
        </mxCell>
        <mxCell id="AcnBpQLC1XjuqXRMUF2F-25" value="" style="endArrow=classic;html=1;rounded=0;entryX=0.5;entryY=1;entryDx=0;entryDy=0;exitX=0.5;exitY=0;exitDx=0;exitDy=0;strokeWidth=2;" edge="1" parent="1" source="AcnBpQLC1XjuqXRMUF2F-20" target="AcnBpQLC1XjuqXRMUF2F-22">
          <mxGeometry width="50" height="50" relative="1" as="geometry">
            <mxPoint x="547" y="445" as="sourcePoint" />
            <mxPoint x="597" y="395" as="targetPoint" />
          </mxGeometry>
        </mxCell>
        <mxCell id="AcnBpQLC1XjuqXRMUF2F-26" value="" style="endArrow=classic;html=1;rounded=0;exitX=0.5;exitY=1;exitDx=0;exitDy=0;strokeWidth=2;" edge="1" parent="1" source="AcnBpQLC1XjuqXRMUF2F-15" target="AcnBpQLC1XjuqXRMUF2F-17">
          <mxGeometry width="50" height="50" relative="1" as="geometry">
            <mxPoint x="297" y="490" as="sourcePoint" />
            <mxPoint x="347" y="440" as="targetPoint" />
          </mxGeometry>
        </mxCell>
        <mxCell id="AcnBpQLC1XjuqXRMUF2F-40" style="edgeStyle=orthogonalEdgeStyle;rounded=0;orthogonalLoop=1;jettySize=auto;html=1;entryX=0;entryY=0.5;entryDx=0;entryDy=0;strokeWidth=2;" edge="1" parent="1" source="AcnBpQLC1XjuqXRMUF2F-31" target="AcnBpQLC1XjuqXRMUF2F-37">
          <mxGeometry relative="1" as="geometry" />
        </mxCell>
        <mxCell id="AcnBpQLC1XjuqXRMUF2F-31" value="" style="ellipse;whiteSpace=wrap;html=1;aspect=fixed;fillColor=#d5e8d4;strokeColor=#82b366;" vertex="1" parent="1">
          <mxGeometry x="397" y="265" width="20" height="20" as="geometry" />
        </mxCell>
        <mxCell id="AcnBpQLC1XjuqXRMUF2F-33" value="" style="ellipse;whiteSpace=wrap;html=1;aspect=fixed;fillColor=#dae8fc;strokeColor=#6c8ebf;" vertex="1" parent="1">
          <mxGeometry x="437" y="445" width="20" height="20" as="geometry" />
        </mxCell>
        <mxCell id="AcnBpQLC1XjuqXRMUF2F-34" value="" style="endArrow=classic;html=1;rounded=0;exitX=0.5;exitY=1;exitDx=0;exitDy=0;entryX=0.5;entryY=0;entryDx=0;entryDy=0;strokeWidth=2;" edge="1" parent="1" source="AcnBpQLC1XjuqXRMUF2F-31" target="AcnBpQLC1XjuqXRMUF2F-33">
          <mxGeometry width="50" height="50" relative="1" as="geometry">
            <mxPoint x="347" y="500" as="sourcePoint" />
            <mxPoint x="447" y="440" as="targetPoint" />
          </mxGeometry>
        </mxCell>
        <mxCell id="AcnBpQLC1XjuqXRMUF2F-45" style="edgeStyle=orthogonalEdgeStyle;rounded=0;orthogonalLoop=1;jettySize=auto;html=1;entryX=0;entryY=0.5;entryDx=0;entryDy=0;strokeWidth=2;" edge="1" parent="1" source="AcnBpQLC1XjuqXRMUF2F-37" target="AcnBpQLC1XjuqXRMUF2F-22">
          <mxGeometry relative="1" as="geometry" />
        </mxCell>
        <mxCell id="AcnBpQLC1XjuqXRMUF2F-37" value="" style="ellipse;whiteSpace=wrap;html=1;aspect=fixed;fillColor=#d5e8d4;strokeColor=#82b366;" vertex="1" parent="1">
          <mxGeometry x="467" y="265" width="20" height="20" as="geometry" />
        </mxCell>
        <mxCell id="AcnBpQLC1XjuqXRMUF2F-39" value="" style="endArrow=classic;html=1;rounded=0;entryX=0.5;entryY=1;entryDx=0;entryDy=0;exitX=0.5;exitY=0;exitDx=0;exitDy=0;strokeWidth=2;" edge="1" parent="1" source="AcnBpQLC1XjuqXRMUF2F-33" target="AcnBpQLC1XjuqXRMUF2F-37">
          <mxGeometry width="50" height="50" relative="1" as="geometry">
            <mxPoint x="347" y="500" as="sourcePoint" />
            <mxPoint x="397" y="450" as="targetPoint" />
          </mxGeometry>
        </mxCell>
        <mxCell id="AcnBpQLC1XjuqXRMUF2F-42" style="edgeStyle=orthogonalEdgeStyle;rounded=0;orthogonalLoop=1;jettySize=auto;html=1;entryX=0.5;entryY=0;entryDx=0;entryDy=0;strokeWidth=2;" edge="1" parent="1" source="AcnBpQLC1XjuqXRMUF2F-41" target="AcnBpQLC1XjuqXRMUF2F-17">
          <mxGeometry relative="1" as="geometry" />
        </mxCell>
        <mxCell id="AcnBpQLC1XjuqXRMUF2F-41" value="v1.1" style="rounded=0;whiteSpace=wrap;html=1;fillColor=#fff2cc;strokeColor=#d6b656;" vertex="1" parent="1">
          <mxGeometry x="342" y="200" width="50" height="20" as="geometry" />
        </mxCell>
        <mxCell id="AcnBpQLC1XjuqXRMUF2F-44" style="edgeStyle=orthogonalEdgeStyle;rounded=0;orthogonalLoop=1;jettySize=auto;html=1;entryX=0.5;entryY=0;entryDx=0;entryDy=0;strokeWidth=2;" edge="1" parent="1" source="AcnBpQLC1XjuqXRMUF2F-43" target="AcnBpQLC1XjuqXRMUF2F-21">
          <mxGeometry relative="1" as="geometry" />
        </mxCell>
        <mxCell id="AcnBpQLC1XjuqXRMUF2F-43" value="v1.1.1" style="rounded=0;whiteSpace=wrap;html=1;fillColor=#fff2cc;strokeColor=#d6b656;" vertex="1" parent="1">
          <mxGeometry x="562" y="200" width="50" height="20" as="geometry" />
        </mxCell>
        <mxCell id="AcnBpQLC1XjuqXRMUF2F-56" value="" style="ellipse;whiteSpace=wrap;html=1;aspect=fixed;fillColor=#fff2cc;strokeColor=#d6b656;" vertex="1" parent="1">
          <mxGeometry x="660" y="325" width="20" height="20" as="geometry" />
        </mxCell>
        <mxCell id="AcnBpQLC1XjuqXRMUF2F-58" value="" style="endArrow=classic;html=1;rounded=0;strokeWidth=2;exitX=0.5;exitY=1;exitDx=0;exitDy=0;entryX=0.5;entryY=0;entryDx=0;entryDy=0;" edge="1" parent="1" source="AcnBpQLC1XjuqXRMUF2F-22" target="AcnBpQLC1XjuqXRMUF2F-56">
          <mxGeometry width="50" height="50" relative="1" as="geometry">
            <mxPoint x="530" y="370" as="sourcePoint" />
            <mxPoint x="580" y="320" as="targetPoint" />
          </mxGeometry>
        </mxCell>
        <mxCell id="AcnBpQLC1XjuqXRMUF2F-59" style="edgeStyle=orthogonalEdgeStyle;rounded=0;orthogonalLoop=1;jettySize=auto;html=1;strokeWidth=2;entryX=0.5;entryY=0;entryDx=0;entryDy=0;" edge="1" parent="1" source="AcnBpQLC1XjuqXRMUF2F-60" target="AcnBpQLC1XjuqXRMUF2F-56">
          <mxGeometry relative="1" as="geometry">
            <mxPoint x="720" y="300" as="targetPoint" />
          </mxGeometry>
        </mxCell>
        <mxCell id="AcnBpQLC1XjuqXRMUF2F-60" value="v1.2" style="rounded=0;whiteSpace=wrap;html=1;fillColor=#fff2cc;strokeColor=#d6b656;" vertex="1" parent="1">
          <mxGeometry x="645" y="200" width="50" height="20" as="geometry" />
        </mxCell>
        <mxCell id="AcnBpQLC1XjuqXRMUF2F-62" value="release-v1.1" style="rounded=1;whiteSpace=wrap;html=1;fillColor=#fff2cc;strokeColor=#d6b656;" vertex="1" parent="1">
          <mxGeometry x="238" y="560" width="90" height="20" as="geometry" />
        </mxCell>
        <mxCell id="AcnBpQLC1XjuqXRMUF2F-64" value="release-v1.2" style="rounded=1;whiteSpace=wrap;html=1;fillColor=#fff2cc;strokeColor=#d6b656;" vertex="1" parent="1">
          <mxGeometry x="345" y="560" width="90" height="20" as="geometry" />
        </mxCell>
        <mxCell id="AcnBpQLC1XjuqXRMUF2F-65" value="feat/xxx" style="rounded=1;whiteSpace=wrap;html=1;fillColor=#e1d5e7;strokeColor=#9673a6;" vertex="1" parent="1">
          <mxGeometry x="460" y="560" width="60" height="20" as="geometry" />
        </mxCell>
        <mxCell id="AcnBpQLC1XjuqXRMUF2F-66" value="bugfix/xx" style="rounded=1;whiteSpace=wrap;html=1;fillColor=#dae8fc;strokeColor=#6c8ebf;" vertex="1" parent="1">
          <mxGeometry x="545" y="560" width="60" height="20" as="geometry" />
        </mxCell>
        <mxCell id="AcnBpQLC1XjuqXRMUF2F-67" value="hotfix/xx" style="rounded=1;whiteSpace=wrap;html=1;fillColor=#f8cecc;strokeColor=#b85450;" vertex="1" parent="1">
          <mxGeometry x="635" y="560" width="60" height="20" as="geometry" />
        </mxCell>
        <mxCell id="AcnBpQLC1XjuqXRMUF2F-68" value="分支名示例：" style="rounded=1;whiteSpace=wrap;html=1;" vertex="1" parent="1">
          <mxGeometry x="120" y="560" width="100" height="20" as="geometry" />
        </mxCell>
      </root>
    </mxGraphModel>
  </diagram>
</mxfile>
